<?xml version="1.0"?>
<svg xmlns="http://www.w3.org/2000/svg" xmlns:xlink="http://www.w3.org/1999/xlink" version="1.1" width="320px" height="320px" viewBox="0 0 320 320"><rect x="0" y="0" width="320" height="320" fill="#ffffff" fill-opacity="1"/><path fill="#000000" fill-opacity="1" d="M13,13L111,13L111,27L13,27ZM125,13L153,13L153,27L125,27ZM181,13L195,13L195,27L181,27ZM209,13L307,13L307,27L209,27ZM13,27L27,27L27,41L13,41ZM97,27L111,27L111,41L97,41ZM139,27L153,27L153,41L139,41ZM181,27L195,27L195,41L181,41ZM209,27L223,27L223,41L209,41ZM293,27L307,27L307,41L293,41ZM13,41L27,41L27,55L13,55ZM41,41L83,41L83,55L41,55ZM97,41L111,41L111,55L97,55ZM125,41L139,41L139,55L125,55ZM153,41L167,41L167,55L153,55ZM181,41L195,41L195,55L181,55ZM209,41L223,41L223,55L209,55ZM237,41L279,41L279,55L237,55ZM293,41L307,41L307,55L293,55ZM13,55L27,55L27,69L13,69ZM41,55L83,55L83,69L41,69ZM97,55L111,55L111,69L97,69ZM125,55L139,55L139,69L125,69ZM167,55L181,55L181,69L167,69ZM209,55L223,55L223,69L209,69ZM237,55L279,55L279,69L237,69ZM293,55L307,55L307,69L293,69ZM13,69L27,69L27,83L13,83ZM41,69L83,69L83,83L41,83ZM97,69L111,69L111,83L97,83ZM125,69L167,69L167,83L125,83ZM209,69L223,69L223,83L209,83ZM237,69L279,69L279,83L237,83ZM293,69L307,69L307,83L293,83ZM13,83L27,83L27,97L13,97ZM97,83L111,83L111,97L97,97ZM209,83L223,83L223,97L209,97ZM293,83L307,83L307,97L293,97ZM13,97L111,97L111,111L13,111ZM125,97L139,97L139,111L125,111ZM153,97L167,97L167,111L153,111ZM181,97L195,97L195,111L181,111ZM209,97L307,97L307,111L209,111ZM139,111L167,111L167,125L139,125ZM13,125L69,125L69,139L13,139ZM97,125L111,125L111,139L97,139ZM125,125L139,125L139,139L125,139ZM153,125L167,125L167,139L153,139ZM195,125L209,125L209,139L195,139ZM237,125L279,125L279,139L237,139ZM293,125L307,125L307,139L293,139ZM13,139L41,139L41,153L13,153ZM55,139L83,139L83,153L55,153ZM139,139L153,139L153,153L139,153ZM181,139L195,139L195,153L181,153ZM223,139L237,139L237,153L223,153ZM251,139L307,139L307,153L251,153ZM27,153L41,153L41,167L27,167ZM69,153L111,153L111,167L69,167ZM139,153L167,153L167,167L139,167ZM181,153L265,153L265,167L181,167ZM279,153L307,153L307,167L279,167ZM13,167L41,167L41,181L13,181ZM83,167L97,167L97,181L83,181ZM111,167L139,167L139,181L111,181ZM181,167L209,167L209,181L181,181ZM251,167L265,167L265,181L251,181ZM279,167L293,167L293,181L279,181ZM41,181L125,181L125,195L41,195ZM167,181L181,181L181,195L167,195ZM195,181L209,181L209,195L195,195ZM237,181L251,181L251,195L237,195ZM279,181L307,181L307,195L279,195ZM125,195L139,195L139,209L125,209ZM195,195L209,195L209,209L195,209ZM223,195L237,195L237,209L223,209ZM251,195L279,195L279,209L251,209ZM293,195L307,195L307,209L293,209ZM13,209L111,209L111,223L13,223ZM195,209L223,209L223,223L195,223ZM237,209L251,209L251,223L237,223ZM265,209L293,209L293,223L265,223ZM13,223L27,223L27,237L13,237ZM97,223L111,223L111,237L97,237ZM167,223L223,223L223,237L167,237ZM293,223L307,223L307,237L293,237ZM13,237L27,237L27,251L13,251ZM41,237L83,237L83,251L41,251ZM97,237L111,237L111,251L97,251ZM139,237L153,237L153,251L139,251ZM167,237L181,237L181,251L167,251ZM209,237L223,237L223,251L209,251ZM293,237L307,237L307,251L293,251ZM13,251L27,251L27,265L13,265ZM41,251L83,251L83,265L41,265ZM97,251L111,251L111,265L97,265ZM125,251L139,251L139,265L125,265ZM153,251L167,251L167,265L153,265ZM195,251L209,251L209,265L195,265ZM237,251L251,251L251,265L237,265ZM279,251L293,251L293,265L279,265ZM13,265L27,265L27,279L13,279ZM41,265L83,265L83,279L41,279ZM97,265L111,265L111,279L97,279ZM125,265L139,265L139,279L125,279ZM153,265L181,265L181,279L153,279ZM195,265L209,265L209,279L195,279ZM237,265L251,265L251,279L237,279ZM265,265L279,265L279,279L265,279ZM13,279L27,279L27,293L13,293ZM97,279L111,279L111,293L97,293ZM125,279L195,279L195,293L125,293ZM209,279L223,279L223,293L209,293ZM237,279L265,279L265,293L237,293ZM279,279L307,279L307,293L279,293ZM13,293L111,293L111,307L13,307ZM125,293L139,293L139,307L125,307ZM167,293L195,293L195,307L167,307ZM223,293L237,293L237,307L223,307ZM279,293L293,293L293,307L279,307Z"/></svg>
