<?xml version="1.0"?>
<svg xmlns="http://www.w3.org/2000/svg" xmlns:xlink="http://www.w3.org/1999/xlink" version="1.1" width="320px" height="320px" viewBox="0 0 320 320"><rect x="0" y="0" width="320" height="320" fill="#ffffff" fill-opacity="1"/><path fill="#000000" fill-opacity="1" d="M13,13L111,13L111,27L13,27ZM139,13L153,13L153,27L139,27ZM167,13L195,13L195,27L167,27ZM209,13L307,13L307,27L209,27ZM13,27L27,27L27,41L13,41ZM97,27L111,27L111,41L97,41ZM139,27L181,27L181,41L139,41ZM209,27L223,27L223,41L209,41ZM293,27L307,27L307,41L293,41ZM13,41L27,41L27,55L13,55ZM41,41L83,41L83,55L41,55ZM97,41L111,41L111,55L97,55ZM125,41L153,41L153,55L125,55ZM167,41L195,41L195,55L167,55ZM209,41L223,41L223,55L209,55ZM237,41L279,41L279,55L237,55ZM293,41L307,41L307,55L293,55ZM13,55L27,55L27,69L13,69ZM41,55L83,55L83,69L41,69ZM97,55L111,55L111,69L97,69ZM139,55L153,55L153,69L139,69ZM167,55L181,55L181,69L167,69ZM209,55L223,55L223,69L209,69ZM237,55L279,55L279,69L237,69ZM293,55L307,55L307,69L293,69ZM13,69L27,69L27,83L13,83ZM41,69L83,69L83,83L41,83ZM97,69L111,69L111,83L97,83ZM153,69L167,69L167,83L153,83ZM181,69L195,69L195,83L181,83ZM209,69L223,69L223,83L209,83ZM237,69L279,69L279,83L237,83ZM293,69L307,69L307,83L293,83ZM13,83L27,83L27,97L13,97ZM97,83L111,83L111,97L97,97ZM181,83L195,83L195,97L181,97ZM209,83L223,83L223,97L209,97ZM293,83L307,83L307,97L293,97ZM13,97L111,97L111,111L13,111ZM125,97L139,97L139,111L125,111ZM153,97L167,97L167,111L153,111ZM181,97L195,97L195,111L181,111ZM209,97L307,97L307,111L209,111ZM125,111L153,111L153,125L125,125ZM167,111L195,111L195,125L167,125ZM13,125L55,125L55,139L13,139ZM69,125L181,125L181,139L69,139ZM195,125L223,125L223,139L195,139ZM265,125L279,125L279,139L265,139ZM13,139L27,139L27,153L13,153ZM69,139L83,139L83,153L69,153ZM111,139L125,139L125,153L111,153ZM209,139L223,139L223,153L209,153ZM251,139L279,139L279,153L251,153ZM293,139L307,139L307,153L293,153ZM41,153L55,153L55,167L41,167ZM69,153L83,153L83,167L69,167ZM97,153L111,153L111,167L97,167ZM125,153L139,153L139,167L125,167ZM153,153L167,153L167,167L153,167ZM181,153L195,153L195,167L181,167ZM237,153L265,153L265,167L237,167ZM279,153L307,153L307,167L279,167ZM13,167L27,167L27,181L13,181ZM41,167L97,167L97,181L41,181ZM125,167L167,167L167,181L125,181ZM209,167L223,167L223,181L209,181ZM251,167L293,167L293,181L251,181ZM41,181L69,181L69,195L41,195ZM97,181L111,181L111,195L97,195ZM125,181L139,181L139,195L125,195ZM153,181L167,181L167,195L153,195ZM181,181L195,181L195,195L181,195ZM209,181L223,181L223,195L209,195ZM237,181L251,181L251,195L237,195ZM265,181L293,181L293,195L265,195ZM125,195L139,195L139,209L125,209ZM167,195L181,195L181,209L167,209ZM195,195L209,195L209,209L195,209ZM223,195L237,195L237,209L223,209ZM251,195L265,195L265,209L251,209ZM279,195L293,195L293,209L279,209ZM13,209L111,209L111,223L13,223ZM125,209L181,209L181,223L125,223ZM195,209L237,209L237,223L195,223ZM265,209L307,209L307,223L265,223ZM13,223L27,223L27,237L13,237ZM97,223L111,223L111,237L97,237ZM125,223L209,223L209,237L125,237ZM223,223L265,223L265,237L223,237ZM13,237L27,237L27,251L13,251ZM41,237L83,237L83,251L41,251ZM97,237L111,237L111,251L97,251ZM125,237L139,237L139,251L125,251ZM153,237L181,237L181,251L153,251ZM195,237L237,237L237,251L195,251ZM265,237L279,237L279,251L265,251ZM293,237L307,237L307,251L293,251ZM13,251L27,251L27,265L13,265ZM41,251L83,251L83,265L41,265ZM97,251L111,251L111,265L97,265ZM139,251L153,251L153,265L139,265ZM209,251L223,251L223,265L209,265ZM265,251L293,251L293,265L265,265ZM13,265L27,265L27,279L13,279ZM41,265L83,265L83,279L41,279ZM97,265L111,265L111,279L97,279ZM125,265L139,265L139,279L125,279ZM181,265L195,265L195,279L181,279ZM237,265L251,265L251,279L237,279ZM293,265L307,265L307,279L293,279ZM13,279L27,279L27,293L13,293ZM97,279L111,279L111,293L97,293ZM125,279L139,279L139,293L125,293ZM153,279L167,279L167,293L153,293ZM209,279L223,279L223,293L209,293ZM265,279L279,279L279,293L265,293ZM13,293L111,293L111,307L13,307ZM125,293L139,293L139,307L125,307ZM153,293L167,293L167,307L153,307ZM181,293L195,293L195,307L181,307ZM209,293L223,293L223,307L209,307ZM237,293L251,293L251,307L237,307ZM265,293L279,293L279,307L265,307ZM293,293L307,293L307,307L293,307Z"/></svg>
