<?xml version="1.0"?>
<svg xmlns="http://www.w3.org/2000/svg" xmlns:xlink="http://www.w3.org/1999/xlink" version="1.1" width="320px" height="320px" viewBox="0 0 320 320"><rect x="0" y="0" width="320" height="320" fill="#ffffff" fill-opacity="1"/><path fill="#000000" fill-opacity="1" d="M13,13L111,13L111,27L13,27ZM153,13L167,13L167,27L153,27ZM181,13L195,13L195,27L181,27ZM209,13L307,13L307,27L209,27ZM13,27L27,27L27,41L13,41ZM97,27L111,27L111,41L97,41ZM125,27L139,27L139,41L125,41ZM153,27L167,27L167,41L153,41ZM181,27L195,27L195,41L181,41ZM209,27L223,27L223,41L209,41ZM293,27L307,27L307,41L293,41ZM13,41L27,41L27,55L13,55ZM41,41L83,41L83,55L41,55ZM97,41L111,41L111,55L97,55ZM125,41L139,41L139,55L125,55ZM153,41L181,41L181,55L153,55ZM209,41L223,41L223,55L209,55ZM237,41L279,41L279,55L237,55ZM293,41L307,41L307,55L293,55ZM13,55L27,55L27,69L13,69ZM41,55L83,55L83,69L41,69ZM97,55L111,55L111,69L97,69ZM181,55L195,55L195,69L181,69ZM209,55L223,55L223,69L209,69ZM237,55L279,55L279,69L237,69ZM293,55L307,55L307,69L293,69ZM13,69L27,69L27,83L13,83ZM41,69L83,69L83,83L41,83ZM97,69L111,69L111,83L97,83ZM125,69L195,69L195,83L125,83ZM209,69L223,69L223,83L209,83ZM237,69L279,69L279,83L237,83ZM293,69L307,69L307,83L293,83ZM13,83L27,83L27,97L13,97ZM97,83L111,83L111,97L97,97ZM125,83L167,83L167,97L125,97ZM209,83L223,83L223,97L209,97ZM293,83L307,83L307,97L293,97ZM13,97L111,97L111,111L13,111ZM125,97L139,97L139,111L125,111ZM153,97L167,97L167,111L153,111ZM181,97L195,97L195,111L181,111ZM209,97L307,97L307,111L209,111ZM125,111L139,111L139,125L125,125ZM13,125L41,125L41,139L13,139ZM55,125L69,125L69,139L55,139ZM97,125L125,125L125,139L97,139ZM153,125L195,125L195,139L153,139ZM209,125L251,125L251,139L209,139ZM265,125L293,125L293,139L265,139ZM13,139L41,139L41,153L13,153ZM83,139L97,139L97,153L83,153ZM111,139L125,139L125,153L111,153ZM139,139L153,139L153,153L139,153ZM167,139L181,139L181,153L167,153ZM195,139L209,139L209,153L195,153ZM237,139L251,139L251,153L237,153ZM279,139L307,139L307,153L279,153ZM27,153L69,153L69,167L27,167ZM97,153L181,153L181,167L97,167ZM195,153L223,153L223,167L195,167ZM293,153L307,153L307,167L293,167ZM27,167L41,167L41,181L27,181ZM55,167L83,167L83,181L55,181ZM111,167L125,167L125,181L111,181ZM181,167L223,167L223,181L181,181ZM237,167L251,167L251,181L237,181ZM279,167L307,167L307,181L279,181ZM13,181L27,181L27,195L13,195ZM41,181L83,181L83,195L41,195ZM97,181L111,181L111,195L97,195ZM139,181L153,181L153,195L139,195ZM167,181L181,181L181,195L167,195ZM209,181L223,181L223,195L209,195ZM237,181L279,181L279,195L237,195ZM293,181L307,181L307,195L293,195ZM125,195L139,195L139,209L125,209ZM153,195L167,195L167,209L153,209ZM195,195L237,195L237,209L195,209ZM13,209L111,209L111,223L13,223ZM125,209L153,209L153,223L125,223ZM167,209L195,209L195,223L167,223ZM209,209L223,209L223,223L209,223ZM237,209L251,209L251,223L237,223ZM279,209L293,209L293,223L279,223ZM13,223L27,223L27,237L13,237ZM97,223L111,223L111,237L97,237ZM153,223L167,223L167,237L153,237ZM209,223L223,223L223,237L209,237ZM237,223L265,223L265,237L237,237ZM279,223L307,223L307,237L279,237ZM13,237L27,237L27,251L13,251ZM41,237L83,237L83,251L41,251ZM97,237L111,237L111,251L97,251ZM153,237L167,237L167,251L153,251ZM181,237L223,237L223,251L181,251ZM251,237L265,237L265,251L251,251ZM279,237L293,237L293,251L279,251ZM13,251L27,251L27,265L13,265ZM41,251L83,251L83,265L41,265ZM97,251L111,251L111,265L97,265ZM125,251L153,251L153,265L125,265ZM195,251L223,251L223,265L195,265ZM237,251L251,251L251,265L237,265ZM293,251L307,251L307,265L293,265ZM13,265L27,265L27,279L13,279ZM41,265L83,265L83,279L41,279ZM97,265L111,265L111,279L97,279ZM153,265L181,265L181,279L153,279ZM195,265L223,265L223,279L195,279ZM237,265L265,265L265,279L237,279ZM293,265L307,265L307,279L293,279ZM13,279L27,279L27,293L13,293ZM97,279L111,279L111,293L97,293ZM125,279L153,279L153,293L125,293ZM167,279L195,279L195,293L167,293ZM251,279L265,279L265,293L251,293ZM279,279L307,279L307,293L279,293ZM13,293L111,293L111,307L13,307ZM125,293L139,293L139,307L125,307ZM195,293L209,293L209,307L195,307ZM237,293L265,293L265,307L237,307ZM279,293L293,293L293,307L279,307Z"/></svg>
