<?xml version="1.0"?>
<svg xmlns="http://www.w3.org/2000/svg" xmlns:xlink="http://www.w3.org/1999/xlink" version="1.1" width="320px" height="320px" viewBox="0 0 320 320"><rect x="0" y="0" width="320" height="320" fill="#ffffff" fill-opacity="1"/><path fill="#000000" fill-opacity="1" d="M13,13L111,13L111,27L13,27ZM125,13L195,13L195,27L125,27ZM209,13L307,13L307,27L209,27ZM13,27L27,27L27,41L13,41ZM97,27L111,27L111,41L97,41ZM139,27L153,27L153,41L139,41ZM167,27L181,27L181,41L167,41ZM209,27L223,27L223,41L209,41ZM293,27L307,27L307,41L293,41ZM13,41L27,41L27,55L13,55ZM41,41L83,41L83,55L41,55ZM97,41L111,41L111,55L97,55ZM139,41L167,41L167,55L139,55ZM209,41L223,41L223,55L209,55ZM237,41L279,41L279,55L237,55ZM293,41L307,41L307,55L293,55ZM13,55L27,55L27,69L13,69ZM41,55L83,55L83,69L41,69ZM97,55L111,55L111,69L97,69ZM139,55L181,55L181,69L139,69ZM209,55L223,55L223,69L209,69ZM237,55L279,55L279,69L237,69ZM293,55L307,55L307,69L293,69ZM13,69L27,69L27,83L13,83ZM41,69L83,69L83,83L41,83ZM97,69L111,69L111,83L97,83ZM153,69L167,69L167,83L153,83ZM181,69L195,69L195,83L181,83ZM209,69L223,69L223,83L209,83ZM237,69L279,69L279,83L237,83ZM293,69L307,69L307,83L293,83ZM13,83L27,83L27,97L13,97ZM97,83L111,83L111,97L97,97ZM167,83L195,83L195,97L167,97ZM209,83L223,83L223,97L209,97ZM293,83L307,83L307,97L293,97ZM13,97L111,97L111,111L13,111ZM125,97L139,97L139,111L125,111ZM153,97L167,97L167,111L153,111ZM181,97L195,97L195,111L181,111ZM209,97L307,97L307,111L209,111ZM125,111L195,111L195,125L125,125ZM13,125L41,125L41,139L13,139ZM55,125L83,125L83,139L55,139ZM97,125L111,125L111,139L97,139ZM139,125L167,125L167,139L139,139ZM181,125L195,125L195,139L181,139ZM209,125L223,125L223,139L209,139ZM293,125L307,125L307,139L293,139ZM41,139L55,139L55,153L41,153ZM69,139L83,139L83,153L69,153ZM125,139L153,139L153,153L125,153ZM181,139L195,139L195,153L181,153ZM209,139L223,139L223,153L209,153ZM237,139L293,139L293,153L237,153ZM55,153L83,153L83,167L55,167ZM97,153L153,153L153,167L97,167ZM195,153L223,153L223,167L195,167ZM237,153L307,153L307,167L237,167ZM41,167L55,167L55,181L41,181ZM69,167L97,167L97,181L69,181ZM139,167L181,167L181,181L139,181ZM265,167L279,167L279,181L265,181ZM27,181L55,181L55,195L27,195ZM83,181L125,181L125,195L83,195ZM139,181L167,181L167,195L139,195ZM209,181L223,181L223,195L209,195ZM251,181L265,181L265,195L251,195ZM125,195L153,195L153,209L125,209ZM167,195L195,195L195,209L167,209ZM223,195L237,195L237,209L223,209ZM279,195L307,195L307,209L279,209ZM13,209L111,209L111,223L13,223ZM139,209L153,209L153,223L139,223ZM181,209L251,209L251,223L181,223ZM293,209L307,209L307,223L293,223ZM13,223L27,223L27,237L13,237ZM97,223L111,223L111,237L97,237ZM153,223L209,223L209,237L153,237ZM223,223L251,223L251,237L223,237ZM265,223L307,223L307,237L265,237ZM13,237L27,237L27,251L13,251ZM41,237L83,237L83,251L41,251ZM97,237L111,237L111,251L97,251ZM125,237L139,237L139,251L125,251ZM167,237L195,237L195,251L167,251ZM209,237L237,237L237,251L209,251ZM251,237L279,237L279,251L251,251ZM293,237L307,237L307,251L293,251ZM13,251L27,251L27,265L13,265ZM41,251L83,251L83,265L41,265ZM97,251L111,251L111,265L97,265ZM125,251L139,251L139,265L125,265ZM153,251L195,251L195,265L153,265ZM237,251L279,251L279,265L237,265ZM13,265L27,265L27,279L13,279ZM41,265L83,265L83,279L41,279ZM97,265L111,265L111,279L97,279ZM153,265L167,265L167,279L153,279ZM209,265L223,265L223,279L209,279ZM251,265L307,265L307,279L251,279ZM13,279L27,279L27,293L13,293ZM97,279L111,279L111,293L97,293ZM125,279L139,279L139,293L125,293ZM195,279L223,279L223,293L195,293ZM237,279L251,279L251,293L237,293ZM265,279L279,279L279,293L265,293ZM293,279L307,279L307,293L293,293ZM13,293L111,293L111,307L13,307ZM125,293L181,293L181,307L125,307ZM265,293L293,293L293,307L265,307Z"/></svg>
